<?xml version="1.0" standalone="no"?>
<!DOCTYPE svg PUBLIC "-//W3C//DTD SVG 20010904//EN"
 "http://www.w3.org/TR/2001/REC-SVG-20010904/DTD/svg10.dtd">
<svg version="1.0" xmlns="http://www.w3.org/2000/svg"
 width="300.000000pt" height="132.000000pt" viewBox="0 0 300.000000 132.000000"
 preserveAspectRatio="xMidYMid meet">
<metadata>
Created by potrace 1.10, written by Peter Selinger 2001-2011
</metadata>
<g transform="translate(0.000000,132.000000) scale(0.100000,-0.100000)"
fill="#000000" stroke="none">
<path d="M1337 954 c7 -3 9 -12 6 -20 -4 -10 -22 -14 -62 -14 -31 0 -62 -5
-69 -12 -7 -7 -12 -8 -12 -4 0 5 -7 3 -15 -4 -12 -10 -16 -9 -21 3 -6 17 -36
16 -41 0 -4 -12 -43 -6 -43 6 0 6 -156 6 -185 0 -6 -1 -14 0 -20 1 -5 2 -48 4
-95 5 -47 1 -98 4 -115 8 -25 6 -26 5 -5 -2 21 -7 16 -9 -25 -9 -37 -1 -45 2
-30 8 34 15 -7 10 -50 -5 -22 -8 -52 -15 -67 -15 -32 0 -58 -9 -58 -20 0 -5
10 -6 22 -2 21 5 22 4 9 -11 -7 -9 -21 -17 -31 -17 -10 0 -23 -7 -30 -15 -8
-10 -9 -15 -1 -15 6 0 3 -9 -6 -20 -10 -11 -25 -20 -34 -20 -38 0 -57 -68 -27
-100 10 -11 23 -20 28 -20 5 0 7 -7 3 -16 -4 -11 -1 -15 13 -12 15 2 18 -2 16
-19 -2 -13 1 -30 7 -40 7 -13 4 -25 -11 -45 -11 -16 -14 -28 -8 -28 6 0 8 -5
5 -10 -3 -6 -2 -10 4 -10 6 0 8 -7 5 -15 -4 -8 -10 -12 -15 -9 -15 9 -10 -8 8
-28 15 -17 15 -18 -2 -18 -10 0 -16 -3 -13 -6 4 -3 36 -7 74 -10 37 -2 72 -8
78 -13 13 -10 132 -6 160 5 10 4 26 2 35 -3 13 -8 26 -7 50 3 38 16 53 18 31
4 -12 -8 -11 -10 7 -10 12 0 24 4 27 9 3 5 51 9 107 9 73 0 104 4 111 14 7 10
12 9 26 -7 13 -15 29 -20 67 -19 85 2 96 4 90 14 -4 6 7 10 25 10 21 0 29 -4
24 -12 -5 -7 -2 -9 8 -5 9 3 20 1 26 -5 12 -12 55 -1 47 13 -8 12 32 12 55 -1
16 -9 18 -8 14 5 -5 12 1 11 30 -6 19 -11 41 -18 48 -16 8 4 7 6 -4 6 -9 1
-19 5 -22 9 -6 10 41 7 154 -7 48 -7 78 -7 84 -1 6 6 19 10 31 10 16 0 17 -2
5 -10 -11 -7 -2 -10 33 -10 35 0 47 4 47 15 0 12 11 14 59 9 39 -4 61 -3 65 5
12 19 26 12 26 -14 0 -23 -3 -25 -48 -25 -27 0 -57 -6 -67 -14 -17 -12 -24
-12 -46 0 -27 14 -39 10 -39 -13 0 -11 107 -13 605 -13 477 0 605 3 605 13 0
9 -44 11 -197 9 -191 -3 -241 1 -216 16 8 5 9 13 3 22 -8 13 -10 12 -10 -2 0
-14 -10 -17 -60 -17 -39 1 -60 5 -60 12 0 8 -3 8 -8 -1 -6 -8 -38 -13 -100
-13 -51 -1 -92 -5 -92 -10 0 -4 -19 -7 -42 -7 -24 1 -75 0 -115 -2 -76 -4
-103 7 -103 40 0 14 5 17 22 12 21 -5 21 -6 2 -13 -10 -4 -14 -8 -7 -8 6 -1
18 -4 26 -7 9 -3 16 3 20 15 6 26 27 28 28 4 1 -12 4 -10 9 7 4 14 8 18 9 10
1 -11 12 -15 40 -14 21 1 43 4 49 8 6 4 16 -2 22 -13 9 -17 14 -19 35 -9 13 6
26 18 28 27 3 9 5 6 6 -9 1 -20 3 -22 11 -10 9 13 11 13 20 0 8 -12 10 -12 10
-1 0 9 9 12 30 9 21 -3 30 0 30 9 0 10 4 11 19 1 14 -9 30 -8 72 4 66 18 75
36 17 34 -30 -1 -43 -6 -43 -16 0 -8 -11 -16 -25 -18 -24 -3 -24 -3 -6 11 17
13 8 14 -85 11 -57 -2 -120 -6 -139 -9 -36 -5 -76 2 -66 12 3 4 -2 12 -12 19
-21 15 -15 22 35 39 31 11 41 11 56 0 20 -14 71 -5 90 14 7 7 20 5 37 -6 31
-18 57 -12 67 14 4 10 10 20 13 23 10 7 88 172 106 222 13 38 12 40 -11 64
-28 28 -49 23 -83 -21 -22 -28 -32 -32 -32 -12 0 21 -34 47 -61 47 -30 -1 -58
-24 -88 -72 -18 -30 -26 -36 -39 -29 -10 5 -51 7 -92 5 -113 -5 -112 -5 -152
2 -29 5 -45 1 -72 -16 -27 -16 -40 -19 -55 -11 -10 6 -21 16 -23 21 -4 13 -34
16 -71 7 -15 -4 -27 -4 -26 0 8 48 -35 105 -71 96 -44 -12 -94 -83 -143 -205
-28 -72 -26 -100 10 -140 18 -20 64 -24 93 -8 14 8 30 6 56 -5 44 -18 73 -14
113 16 33 24 52 20 30 -7 -14 -17 -15 -20 -17 -68 -2 -24 -4 -27 -17 -16 -17
14 -261 25 -445 19 -14 -1 -47 3 -74 7 -48 9 -49 10 -31 27 9 10 23 16 31 13
40 -15 133 101 141 177 7 59 -20 88 -90 98 -43 6 -57 4 -79 -12 -27 -19 -28
-19 -61 1 -37 22 -53 20 -99 -12 -26 -18 -27 -18 -63 7 -21 13 -41 22 -46 19
-5 -3 -8 8 -7 25 2 33 -34 81 -61 81 -11 0 -12 3 -3 12 7 7 42 10 99 8 48 -2
120 -2 158 -1 39 1 160 2 270 4 185 2 200 3 203 20 3 15 0 18 -17 12 -26 -8
-28 10 -3 24 13 8 14 10 2 11 -25 0 -43 -17 -37 -34 5 -12 0 -16 -16 -16 -12
0 -29 5 -37 10 -12 8 -11 10 8 10 12 0 22 4 22 9 0 5 -21 7 -47 4 -36 -3 -44
-2 -33 6 13 9 13 11 -2 11 -23 0 -33 -19 -14 -26 17 -7 22 -24 7 -24 -5 0 -16
7 -25 15 -13 13 -16 13 -31 -1 -18 -19 -22 -17 -27 11 -3 21 -17 35 -33 34 -5
0 -5 -3 2 -5z m-668 -74 c2 0 -12 -19 -30 -42 -50 -62 -62 -91 -57 -134 4 -34
0 -43 -30 -71 -32 -30 -34 -36 -29 -75 4 -31 14 -51 36 -70 46 -41 74 -44 130
-15 32 16 53 22 62 16 25 -16 55 -10 79 16 l23 24 29 -24 c32 -27 49 -30 79
-15 13 8 25 7 39 0 12 -6 39 -14 60 -18 30 -5 37 -10 31 -21 -19 -30 -600 -49
-650 -22 -22 12 -23 18 -18 72 8 88 -2 135 -33 167 -36 36 -43 59 -23 74 8 7
41 39 73 71 32 31 66 57 77 57 10 0 25 5 33 10 8 6 38 8 65 6 28 -3 52 -6 54
-6z m153 -20 c7 -11 20 -20 30 -20 9 0 20 -4 23 -10 3 -5 15 -10 25 -10 35 0
32 -20 -14 -109 -25 -49 -46 -92 -46 -95 0 -3 16 12 37 34 20 23 49 50 65 62
27 19 31 19 45 5 14 -14 12 -22 -21 -87 -20 -39 -36 -77 -36 -83 0 -17 48 32
81 85 17 26 36 48 41 48 6 0 21 11 34 25 28 31 47 32 75 4 21 -21 22 -45 4
-91 -4 -11 -3 -18 4 -18 6 0 26 29 43 65 22 44 38 65 48 62 8 -1 14 -11 13
-21 -1 -16 1 -16 21 3 27 25 34 26 58 4 33 -30 19 -93 -38 -169 -28 -38 -54
-46 -88 -29 -26 14 -26 13 -42 -41 -16 -57 -21 -61 -46 -41 -15 11 -14 18 9
75 14 35 23 65 20 68 -3 4 -23 -12 -45 -35 -25 -26 -48 -41 -64 -41 -25 0 -68
32 -68 52 0 6 -9 -1 -21 -16 -24 -31 -49 -33 -73 -7 -17 18 -16 22 8 72 14 29
23 55 21 57 -6 6 -73 -69 -103 -115 -29 -47 -30 -47 -51 -34 -20 13 -4 66 55
185 24 50 41 92 39 95 -3 2 -25 -9 -49 -26 -54 -38 -68 -23 -30 32 29 43 29
45 5 45 -22 0 -89 -43 -113 -73 -29 -36 -22 -61 27 -101 35 -29 45 -44 45 -68
0 -60 -79 -126 -134 -112 -62 15 -89 90 -46 129 18 16 23 17 45 5 l25 -13 -25
-23 c-48 -45 -22 -79 37 -48 69 36 76 74 18 104 -71 36 -80 93 -25 157 37 43
105 83 142 83 13 0 28 -9 35 -20z m864 -65 c15 -24 15 -27 -13 -77 -17 -29
-44 -62 -60 -73 -18 -12 -36 -36 -44 -58 -23 -70 10 -63 71 15 23 29 62 71 87
92 44 38 47 39 72 25 23 -14 26 -21 24 -70 -2 -53 -2 -54 15 -30 30 43 102
111 117 111 16 0 55 -34 55 -48 0 -5 -6 -17 -14 -28 -12 -15 -17 -16 -27 -7
-10 10 -9 15 1 28 19 23 3 31 -20 10 -31 -28 -80 -106 -80 -127 0 -25 34 -23
71 5 17 12 49 50 70 83 35 54 71 84 99 84 5 0 18 -9 29 -21 l19 -21 7 21 c7
25 18 27 34 7 10 -11 4 -31 -29 -95 -22 -45 -36 -81 -31 -81 18 0 67 70 109
153 23 46 53 94 67 107 l25 24 21 -21 c20 -19 20 -24 8 -59 -8 -22 -36 -61
-62 -88 -60 -60 -85 -116 -53 -116 8 0 35 24 60 52 39 44 46 49 46 30 0 -26
-89 -122 -113 -122 -10 0 -25 13 -35 30 l-19 30 -28 -30 c-16 -17 -35 -28 -41
-26 -16 6 -49 -30 -35 -39 23 -14 9 -22 -34 -20 -25 1 -48 5 -52 8 -3 4 -12 2
-20 -5 -11 -9 -18 -8 -31 5 -15 16 -15 18 1 34 13 13 20 14 29 5 9 -9 15 -9
25 0 10 8 17 8 25 0 9 -9 8 -12 -6 -12 -9 0 -14 -4 -11 -10 12 -20 35 -10 35
15 0 18 -5 25 -20 25 -11 0 -25 9 -32 20 -16 25 -24 25 -47 3 -13 -13 -18 -29
-16 -55 2 -21 0 -38 -5 -38 -10 0 -25 39 -22 57 2 7 -6 9 -18 6 -19 -5 -19 -7
-4 -18 23 -16 13 -40 -18 -40 -22 -1 -27 4 -30 33 -2 18 0 35 4 38 4 3 8 -9 8
-25 0 -26 4 -31 23 -31 21 1 21 1 3 15 -10 8 -16 21 -13 29 3 8 -3 22 -14 32
-10 9 -19 23 -19 31 0 23 -24 14 -45 -17 -39 -58 -105 -65 -131 -12 -10 20
-12 21 -24 7 -8 -9 -27 -23 -43 -31 -26 -14 -31 -14 -48 2 -34 31 -32 51 19
158 47 99 80 146 102 146 5 0 17 -11 26 -25z m813 16 c12 -7 4 -31 -40 -130
-30 -66 -59 -120 -64 -121 -6 0 -16 5 -22 11 -8 8 -2 31 24 88 19 42 43 95 54
119 19 44 25 48 48 33z m-1720 -132 c-11 -22 -31 -16 -63 20 -16 17 -17 25 -8
46 l11 24 35 -35 c30 -30 34 -39 25 -55z m1609 -152 c4 -21 -25 -34 -40 -19
-8 8 -8 16 2 27 16 19 34 15 38 -8z"/>
<path d="M1112 684 c-10 -18 -4 -64 8 -64 8 0 20 35 20 63 0 21 -16 22 -28 1z"/>
<path d="M1281 663 c-17 -21 -38 -52 -46 -69 -15 -31 -12 -64 6 -64 21 0 89
117 89 155 0 25 -17 17 -49 -22z"/>
<path d="M1051 610 c-37 -81 -20 -106 34 -50 26 27 27 31 13 47 -8 10 -18 25
-21 33 -3 10 -12 -1 -26 -30z"/>
<path d="M1635 730 c-33 -52 -42 -76 -27 -66 16 10 66 96 59 102 -3 3 -17 -13
-32 -36z"/>
<path d="M2326 746 c-9 -14 -23 -37 -31 -51 -19 -31 -19 -41 1 -24 19 15 57
89 50 96 -2 3 -12 -7 -20 -21z"/>
<path d="M1767 693 c-10 -10 -8 -61 2 -67 11 -7 21 17 21 50 0 23 -10 31 -23
17z"/>
<path d="M2091 681 c-37 -37 -84 -151 -62 -151 18 0 101 111 101 135 0 33 -16
39 -39 16z"/>
<path d="M1707 624 c-20 -41 -29 -82 -18 -88 15 -9 38 4 55 30 15 21 15 26 -3
55 l-19 31 -15 -28z"/>
<path d="M2073 538 c-11 -14 -13 -48 -3 -48 3 0 14 6 23 13 14 10 14 15 3 30
-11 13 -16 14 -23 5z"/>
<path d="M1896 936 c8 -21 -34 -30 -81 -17 -48 13 -77 3 -44 -15 l24 -13 -28
-1 c-16 0 -30 7 -33 15 -9 21 -90 21 -98 -1 -9 -24 -8 -25 20 -18 14 4 43 1
63 -6 29 -9 43 -10 60 -1 16 9 31 9 61 0 41 -13 66 -5 40 11 -13 8 -12 10 3
10 9 0 17 -5 17 -11 0 -5 5 -7 10 -4 11 7 232 17 340 15 123 -1 313 -21 340
-35 14 -7 33 -21 40 -30 19 -23 13 -109 -10 -153 -15 -28 -18 -48 -14 -91 5
-48 3 -60 -16 -83 -12 -17 -31 -28 -45 -28 -13 0 -27 -5 -30 -10 -7 -11 43
-14 69 -4 22 9 57 69 50 87 -3 10 1 17 13 20 17 4 17 5 -1 6 -18 1 -18 2 -1
21 18 19 17 20 -3 20 -25 0 -29 18 -7 26 20 8 19 21 -2 27 -10 3 -1 5 20 6 28
1 36 4 30 14 -4 6 -8 22 -9 34 0 12 -7 29 -14 38 -10 12 -10 15 3 15 24 0 31
19 13 39 -9 10 -16 24 -16 32 0 8 -12 22 -28 31 -30 18 -140 41 -181 37 -14
-1 -39 1 -56 4 -44 11 -255 16 -255 7 0 -15 -34 -21 -42 -7 -5 9 -21 13 -45
11 -20 -1 -44 1 -52 5 -9 5 -22 6 -30 3 -10 -3 -7 -8 10 -18 l24 -13 -25 -1
c-15 0 -32 6 -38 12 -10 10 -15 10 -23 -2 -8 -12 -9 -12 -7 4 2 10 -3 21 -10
23 -7 3 -10 -1 -6 -11z"/>
<path d="M2670 540 c20 -13 330 -13 330 0 0 6 -64 10 -172 10 -116 0 -168 -4
-158 -10z"/>
<path d="M38 83 c-30 -3 -38 -9 -38 -24 0 -18 8 -19 130 -19 l130 0 0 25 c0
25 0 25 -92 23 -51 -1 -110 -3 -130 -5z m172 -23 c0 -4 -36 -7 -80 -8 -44 -1
-80 2 -80 7 0 4 36 8 80 8 44 0 80 -3 80 -7z"/>
</g>
</svg>
